<svg xmlns="http://www.w3.org/2000/svg" width="157" height="25" viewBox="0 0 157 25"><path fill="#222D39" fill-rule="evenodd" d="M22.072 12.336c0 1.685-.291 3.24-.872 4.664-.581 1.424-1.4 2.656-2.456 3.696s-2.328 1.851-3.816 2.432-3.139.872-4.952.872h-9.056v-23.312h9.056c1.813 0 3.464.293 4.952.88s2.76 1.397 3.816 2.432 1.875 2.264 2.456 3.688c.581 1.424.872 2.973.872 4.648zm-5.536 0c0-1.152-.149-2.192-.448-3.12-.299-.928-.728-1.715-1.288-2.36-.56-.645-1.245-1.141-2.056-1.488-.811-.347-1.733-.52-2.768-.52h-3.616v14.992h3.616c1.035 0 1.957-.173 2.768-.52.811-.347 1.496-.843 2.056-1.488s.989-1.432 1.288-2.36c.299-.928.448-1.973.448-3.136zm19.584 11.664c-.469 0-.824-.064-1.064-.192-.24-.128-.44-.395-.6-.8l-.352-.912c-.416.352-.816.661-1.2.928s-.781.493-1.192.68c-.411.187-.848.325-1.312.416-.464.091-.979.136-1.544.136-.757 0-1.445-.099-2.064-.296-.619-.197-1.144-.488-1.576-.872-.432-.384-.765-.861-1-1.432s-.352-1.229-.352-1.976c0-.587.149-1.189.448-1.808.299-.619.816-1.181 1.552-1.688.736-.507 1.728-.931 2.976-1.272 1.248-.341 2.821-.533 4.72-.576v-.704c0-.971-.2-1.672-.6-2.104-.4-.432-.968-.648-1.704-.648-.587 0-1.067.064-1.44.192s-.707.272-1 .432c-.293.16-.579.304-.856.432s-.608.192-.992.192c-.341 0-.632-.083-.872-.248-.24-.165-.429-.371-.568-.616l-.896-1.552c1.003-.885 2.115-1.544 3.336-1.976 1.221-.432 2.531-.648 3.928-.648 1.003 0 1.907.163 2.712.488.805.325 1.488.779 2.048 1.36.56.581.989 1.272 1.288 2.072.299.8.448 1.675.448 2.624v10.368h-2.272zm-5.696-3.024c.64 0 1.2-.112 1.68-.336.48-.224.965-.587 1.456-1.088v-2.304c-.992.043-1.808.128-2.448.256-.64.128-1.147.288-1.52.48s-.632.411-.776.656c-.144.245-.216.512-.216.8 0 .565.155.963.464 1.192.309.229.763.344 1.36.344zm21.632-9.936c-.128.203-.264.347-.408.432-.144.085-.328.128-.552.128-.235 0-.469-.051-.704-.152l-.76-.328c-.272-.117-.579-.227-.92-.328-.341-.101-.731-.152-1.168-.152-.629 0-1.112.12-1.448.36-.336.24-.504.573-.504 1 0 .309.109.565.328.768.219.203.509.381.872.536.363.155.773.301 1.232.44.459.139.928.293 1.408.464.48.171.949.371 1.408.6.459.229.869.512 1.232.848.363.336.653.744.872 1.224.219.48.328 1.056.328 1.728 0 .821-.149 1.579-.448 2.272-.299.693-.744 1.291-1.336 1.792-.592.501-1.323.891-2.192 1.168-.869.277-1.869.416-3 .416-.565 0-1.131-.053-1.696-.16-.565-.107-1.112-.251-1.64-.432-.528-.181-1.016-.397-1.464-.648-.448-.251-.832-.52-1.152-.808l1.152-1.824c.139-.213.304-.381.496-.504s.443-.184.752-.184c.288 0 .547.064.776.192l.744.416c.267.149.579.288.936.416.357.128.808.192 1.352.192.384 0 .709-.04.976-.12.267-.08.48-.189.64-.328.16-.139.277-.293.352-.464.075-.171.112-.347.112-.528 0-.331-.112-.603-.336-.816-.224-.213-.517-.397-.88-.552-.363-.155-.776-.299-1.24-.432-.464-.133-.936-.285-1.416-.456-.48-.171-.952-.376-1.416-.616-.464-.24-.877-.544-1.24-.912s-.656-.819-.88-1.352c-.224-.533-.336-1.179-.336-1.936 0-.704.136-1.373.408-2.008.272-.635.68-1.192 1.224-1.672.544-.48 1.227-.861 2.048-1.144.821-.283 1.781-.424 2.88-.424.597 0 1.176.053 1.736.16.56.107 1.085.256 1.576.448.491.192.939.419 1.344.68.405.261.763.547 1.072.856l-1.12 1.744zm3.936 12.96v-23.952h4.96v8.816c.597-.512 1.245-.925 1.944-1.24.699-.315 1.533-.472 2.504-.472.907 0 1.709.157 2.408.472.699.315 1.288.752 1.768 1.312s.843 1.227 1.088 2c.245.773.368 1.613.368 2.52v10.544h-4.96v-10.544c0-.811-.187-1.443-.56-1.896-.373-.453-.923-.68-1.648-.68-.544 0-1.056.117-1.536.352s-.939.549-1.376.944v11.824h-4.96zm18.56 0v-23.952h4.96v9.12c.619-.608 1.32-1.096 2.104-1.464.784-.368 1.704-.552 2.76-.552.864 0 1.664.187 2.4.56.736.373 1.371.92 1.904 1.64.533.72.952 1.603 1.256 2.648.304 1.045.456 2.235.456 3.568 0 1.248-.173 2.4-.52 3.456-.347 1.056-.832 1.973-1.456 2.752-.624.779-1.371 1.387-2.24 1.824-.869.437-1.832.656-2.888.656-.491 0-.931-.048-1.32-.144-.389-.096-.747-.232-1.072-.408-.325-.176-.624-.387-.896-.632s-.536-.512-.792-.8l-.176.832c-.075.341-.211.576-.408.704-.197.128-.456.192-.776.192h-3.296zm8.096-13.12c-.363 0-.691.035-.984.104-.293.069-.565.168-.816.296-.251.128-.483.291-.696.488-.213.197-.427.424-.64.68v7.04c.373.416.779.707 1.216.872.437.165.896.248 1.376.248.459 0 .88-.091 1.264-.272.384-.181.717-.472 1-.872.283-.4.504-.92.664-1.56.16-.64.24-1.419.24-2.336 0-.875-.064-1.611-.192-2.208-.128-.597-.307-1.08-.536-1.448-.229-.368-.504-.632-.824-.792-.32-.16-.677-.24-1.072-.24zm17.856-3.728c1.259 0 2.405.197 3.44.592 1.035.395 1.923.96 2.664 1.696.741.736 1.317 1.629 1.728 2.68.411 1.051.616 2.232.616 3.544 0 1.323-.205 2.515-.616 3.576-.411 1.061-.987 1.963-1.728 2.704-.741.741-1.629 1.312-2.664 1.712-1.035.4-2.181.6-3.44.6-1.269 0-2.424-.2-3.464-.6-1.04-.4-1.936-.971-2.688-1.712-.752-.741-1.333-1.643-1.744-2.704-.411-1.061-.616-2.253-.616-3.576 0-1.312.205-2.493.616-3.544.411-1.051.992-1.944 1.744-2.68.752-.736 1.648-1.301 2.688-1.696 1.04-.395 2.195-.592 3.464-.592zm0 13.424c1.141 0 1.981-.403 2.52-1.208.539-.805.808-2.029.808-3.672 0-1.643-.269-2.864-.808-3.664-.539-.8-1.379-1.2-2.52-1.2-1.173 0-2.032.4-2.576 1.2-.544.8-.816 2.021-.816 3.664 0 1.643.272 2.867.816 3.672.544.805 1.403 1.208 2.576 1.208zm22.624 3.424c-.469 0-.824-.064-1.064-.192-.24-.128-.44-.395-.6-.8l-.352-.912c-.416.352-.816.661-1.2.928s-.781.493-1.192.68c-.411.187-.848.325-1.312.416-.464.091-.979.136-1.544.136-.757 0-1.445-.099-2.064-.296-.619-.197-1.144-.488-1.576-.872-.432-.384-.765-.861-1-1.432s-.352-1.229-.352-1.976c0-.587.149-1.189.448-1.808.299-.619.816-1.181 1.552-1.688.736-.507 1.728-.931 2.976-1.272 1.248-.341 2.821-.533 4.72-.576v-.704c0-.971-.2-1.672-.6-2.104-.4-.432-.968-.648-1.704-.648-.587 0-1.067.064-1.44.192s-.707.272-1 .432c-.293.16-.579.304-.856.432s-.608.192-.992.192c-.341 0-.632-.083-.872-.248-.24-.165-.429-.371-.568-.616l-.896-1.552c1.003-.885 2.115-1.544 3.336-1.976 1.221-.432 2.531-.648 3.928-.648 1.003 0 1.907.163 2.712.488.805.325 1.488.779 2.048 1.36.56.581.989 1.272 1.288 2.072.299.8.448 1.675.448 2.624v10.368h-2.272zm-5.696-3.024c.64 0 1.2-.112 1.68-.336.48-.224.965-.587 1.456-1.088v-2.304c-.992.043-1.808.128-2.448.256-.64.128-1.147.288-1.52.48s-.632.411-.776.656c-.144.245-.216.512-.216.8 0 .565.155.963.464 1.192.309.229.763.344 1.36.344zm11.488 3.024v-16.592h2.944c.245 0 .451.021.616.064.165.043.304.109.416.2.112.091.197.211.256.36s.109.331.152.544l.272 1.552c.608-.939 1.291-1.68 2.048-2.224.757-.544 1.584-.816 2.48-.816.757 0 1.365.181 1.824.544l-.64 3.648c-.043.224-.128.381-.256.472-.128.091-.299.136-.512.136-.181 0-.395-.024-.64-.072-.245-.048-.555-.072-.928-.072-1.301 0-2.325.693-3.072 2.08v10.176h-4.96zm24.864 0c-.309 0-.568-.069-.776-.208-.208-.139-.355-.347-.44-.624l-.384-1.264c-.331.352-.677.672-1.04.96-.363.288-.755.536-1.176.744-.421.208-.875.368-1.36.48-.485.112-1.011.168-1.576.168-.864 0-1.664-.192-2.4-.576-.736-.384-1.371-.939-1.904-1.664-.533-.725-.952-1.613-1.256-2.664-.304-1.051-.456-2.248-.456-3.592 0-1.237.171-2.387.512-3.448.341-1.061.824-1.979 1.448-2.752.624-.773 1.373-1.379 2.248-1.816.875-.437 1.84-.656 2.896-.656.853 0 1.576.125 2.168.376.592.251 1.128.579 1.608.984v-8.4h4.96v23.952h-3.072zm-5.024-3.552c.363 0 .691-.035.984-.104.293-.069.563-.168.808-.296.245-.128.477-.288.696-.48.219-.192.435-.416.648-.672v-7.04c-.384-.416-.792-.707-1.224-.872-.432-.165-.888-.248-1.368-.248-.459 0-.88.091-1.264.272-.384.181-.717.472-1 .872-.283.4-.504.92-.664 1.56-.16.64-.24 1.413-.24 2.32 0 .875.064 1.611.192 2.208.128.597.307 1.08.536 1.448.229.368.504.632.824.792.32.16.677.24 1.072.24z"/></svg>