<svg xmlns="http://www.w3.org/2000/svg" width="47" height="20" viewBox="0 0 47 20">
  <path fill="#FFF" fill-rule="evenodd" d="M70.9084817,21.9389748 C53.8125674,20.6389748 39.6776531,24.6856414 36.5165674,26.1856414 C34.7540674,26.9856414 34.6305245,27.9856414 34.8836531,28.5383081 C35.1126103,28.9616414 35.9525674,29.2089748 36.8751103,28.7616414 C43.6605674,25.1623081 57.3899388,22.2916414 70.9145245,23.1149748 C71.2388245,23.1136414 71.5006817,22.8489748 71.4993388,22.5236414 C71.497996,22.1989748 71.2334531,21.9369748 70.9091531,21.9383081 L70.9084817,21.9389748 Z M75.1445245,16.8923081 C74.4281103,17.6923081 73.3820245,18.2923081 73.0530245,17.9923081 C72.7240245,17.6923081 73.0530245,16.7456414 73.0530245,16.7456414 C74.7329388,15.6689748 77.9994388,12.9223081 77.9994388,10.8229748 C77.9994388,8.87630812 76.2369388,8.27630812 74.374396,10.0763081 C72.8677103,11.6849748 71.7806674,13.6403081 71.2079388,15.7696414 C70.238396,16.7163081 68.7055245,17.9163081 67.3304388,17.9163081 C66.6140245,17.9163081 66.4139388,17.4163081 66.5139817,16.7396414 C67.6889817,16.7223081 70.9494388,15.8223081 70.9494388,13.1163081 C70.9447388,12.6643081 70.7520388,12.2349748 70.416996,11.9309748 C70.0826245,11.6276414 69.636796,11.4769748 69.1869388,11.5163081 C67.7064388,11.5163081 65.820396,13.0163081 64.8985245,15.1156414 C64.6467388,15.0689748 64.4016674,14.9896414 64.1700245,14.8803081 C64.4110674,14.3649748 64.607796,13.8296414 64.7575245,13.2803081 C64.9629817,12.1803081 64.5050674,11.4803081 63.5825245,11.5803081 C62.9950245,11.6276414 62.3074817,12.1276414 62.1550674,13.2803081 C62.093296,13.8643081 62.1993817,14.4543081 62.4605674,14.9803081 C62.0550245,16.2269748 60.4221103,17.7803081 59.8581103,17.7269748 C59.2941103,17.6743081 59.9346531,15.4683081 60.4986531,13.8216414 C60.8075103,13.5056414 61.0512388,13.1316414 61.2150674,12.7216414 C61.3728531,12.4009748 61.2634103,12.0129748 60.9626103,11.8216414 C60.1226531,11.5169748 59.1900388,11.9083081 58.8180674,12.7216414 C58.5938103,13.1229748 58.3970817,13.5396414 58.2305674,13.9683081 C57.7726531,14.5156414 57.0555674,15.2149748 56.8501103,15.1449748 C56.5446103,14.9449748 57.5665245,13.5983081 57.4376103,12.8449748 C57.346296,12.2249748 56.7856531,11.7849748 56.1625674,11.8449748 C55.2400245,11.9743081 54.0180245,13.7036414 54.0180245,13.7036414 C54.1617103,13.3883081 54.2469817,13.0496414 54.2704817,12.7036414 C54.2174388,12.0569748 52.9954388,11.7569748 52.3844388,12.9509748 C51.9661388,14.0949748 51.6586245,15.2769748 51.4679388,16.4803081 C51.2154817,17.0276414 50.192896,18.6269748 49.3764388,18.6803081 C48.712396,18.7276414 49.5288531,15.8336414 49.628896,15.6803081 C49.9874388,15.1329748 50.4453531,13.9803081 50.3453103,13.4803081 C50.3540388,13.2376414 50.244596,13.0056414 50.0525674,12.8569748 C49.8605388,12.7089748 49.6080817,12.6623081 49.3757674,12.7329748 C48.9648531,12.8403081 48.6150388,13.1096414 48.4062245,13.4796414 C48.1128103,13.1156414 47.6428103,12.9443081 47.1842245,13.0323081 C44.4703103,13.3203081 42.7487674,17.9669748 42.9428103,20.1729748 C43.0952245,21.3496414 43.6592245,22.0729748 44.7053103,21.9376414 C45.8803103,21.7903081 46.8498531,20.0909748 46.8498531,20.0909748 C46.8498531,20.0909748 47.1023103,21.4909748 48.383396,21.3376414 C49.3321245,21.0469748 50.1687245,20.4723081 50.780396,19.6909748 C50.7508531,19.7703081 50.7327245,19.8536414 50.7273531,19.9383081 C50.521896,21.1149748 52.4898531,20.9849748 52.6657674,20.0856414 C53.2532674,15.6389748 54.7572674,13.7923081 55.2151817,13.7923081 C55.5737245,13.7923081 54.2456388,15.8923081 55.0097245,16.6923081 C55.5972245,17.3923081 56.6426388,16.8396414 57.5121388,16.1043081 C57.360396,16.6589748 57.275796,17.2296414 57.2596817,17.8043081 C57.2066388,19.0509748 57.6652245,20.0509748 58.892596,20.0043081 C60.5255103,19.9569748 62.2591388,17.9576414 63.381096,16.0576414 C63.6765245,16.2503081 64.0048531,16.3863081 64.3506388,16.4576414 C64.2338103,16.9023081 64.1901674,17.3636414 64.2217245,17.8223081 C64.3217674,19.2689748 65.3436817,19.8223081 66.5186817,19.7689748 C67.8991388,19.7216414 69.5266817,18.6689748 70.6311817,17.7223081 C70.6365531,17.7769748 70.6170817,17.8309748 70.5781388,17.8696414 C70.478096,18.5696414 70.6311817,19.8696414 71.6470531,19.9163081 C72.8220531,20.0163081 74.8605103,18.8163081 75.883096,17.5636414 C76.6176388,17.0223081 75.7541817,16.2223081 75.1431817,16.8696414 L75.1431817,16.8929748 L75.1445245,16.8923081 Z M76.2369388,10.8749748 C76.3611531,10.8876414 76.4524674,10.9969748 76.442396,11.1223081 C76.442396,12.3689748 73.2759388,15.0216414 73.2759388,15.0216414 C73.2759388,15.0216414 75.3439388,10.8749748 76.2369388,10.8749748 L76.2369388,10.8749748 Z M68.5994388,13.4689748 C68.7048531,13.4596414 68.8082531,13.5003081 68.8787531,13.5789748 C68.9492531,13.6576414 68.978796,13.7649748 68.9579817,13.8689748 C68.9579817,14.5689748 67.9884388,15.1156414 66.9195245,15.1156414 C67.4895674,14.2923081 68.1529388,13.4689748 68.5994388,13.4689748 L68.5994388,13.4689748 Z M47.4501103,15.4216414 C47.3500674,16.1683081 46.0226531,19.5389748 45.3055674,19.5389748 C44.3890674,19.5863081 45.7634817,14.7923081 47.2439817,14.8336414 C47.5320245,14.8216414 47.5320245,15.0216414 47.4494388,15.4216414 L47.4501103,15.4216414 Z M35.9532388,16.3216414 C36.8227388,16.3216414 35.2368245,20.7683081 35.4422817,22.7149748 C35.6477388,24.6616414 37.8392817,24.1149748 37.686196,22.9623081 C37.4337388,21.0623081 38.7551103,15.0163081 40.083196,15.0163081 C41.0527388,15.0163081 39.0142817,19.1629748 39.4191531,21.7629748 C39.6716103,23.4629748 42.0216103,22.9396414 41.7691531,21.8629748 C41.0527388,18.4689748 43.4551103,15.1696414 43.1435674,12.7756414 C42.9911531,11.7756414 42.4271531,11.2289748 41.7631103,11.2289748 C39.566196,11.2289748 37.780196,15.6229748 37.780196,15.6229748 C37.780196,15.6229748 37.991696,13.1176414 36.205696,13.0229748 C33.6032388,12.8703081 30.9477388,19.2696414 31.0007817,25.0629748 C31.0538245,26.9096414 33.3977817,26.6096414 33.244696,25.1103081 C33.0922817,22.5283081 34.6251531,16.3229748 35.9532388,16.3229748 L35.9532388,16.3216414 Z" transform="translate(-31 -9)"/>
</svg>
